<mxfile host="app.diagrams.net" agent="Mozilla/5.0 (Windows NT 10.0; Win64; x64) AppleWebKit/537.36 (KHTML, like Gecko) Chrome/132.0.0.0 Safari/537.36" version="26.0.11">
  <diagram name="Page-1" id="xBXDCcP3glut8FA6asXu">
    <mxGraphModel dx="1687" dy="868" grid="1" gridSize="10" guides="1" tooltips="1" connect="1" arrows="1" fold="1" page="1" pageScale="1" pageWidth="827" pageHeight="1169" math="0" shadow="0">
      <root>
        <mxCell id="0" />
        <mxCell id="1" parent="0" />
        <mxCell id="5I71og-eEB45eZ9uHMb0-36" value="" style="edgeStyle=orthogonalEdgeStyle;rounded=0;orthogonalLoop=1;jettySize=auto;html=1;" edge="1" parent="1" source="5I71og-eEB45eZ9uHMb0-1">
          <mxGeometry relative="1" as="geometry">
            <mxPoint x="165" y="385" as="targetPoint" />
          </mxGeometry>
        </mxCell>
        <mxCell id="5I71og-eEB45eZ9uHMb0-1" value="Futur&amp;nbsp;&lt;span style=&quot;background-color: transparent; color: light-dark(rgb(0, 0, 0), rgb(255, 255, 255));&quot;&gt;Client&lt;/span&gt;" style="shape=umlActor;verticalLabelPosition=bottom;verticalAlign=top;html=1;outlineConnect=0;" vertex="1" parent="1">
          <mxGeometry x="230" y="275" width="30" height="60" as="geometry" />
        </mxCell>
        <mxCell id="5I71og-eEB45eZ9uHMb0-140" style="edgeStyle=orthogonalEdgeStyle;rounded=0;orthogonalLoop=1;jettySize=auto;html=1;entryX=1;entryY=0.5;entryDx=0;entryDy=0;" edge="1" parent="1" source="5I71og-eEB45eZ9uHMb0-2" target="5I71og-eEB45eZ9uHMb0-102">
          <mxGeometry relative="1" as="geometry" />
        </mxCell>
        <mxCell id="5I71og-eEB45eZ9uHMb0-141" style="edgeStyle=orthogonalEdgeStyle;rounded=0;orthogonalLoop=1;jettySize=auto;html=1;" edge="1" parent="1" target="5I71og-eEB45eZ9uHMb0-104">
          <mxGeometry relative="1" as="geometry">
            <mxPoint x="1470" y="445" as="sourcePoint" />
            <mxPoint x="1330" y="405" as="targetPoint" />
            <Array as="points">
              <mxPoint x="1401" y="445" />
              <mxPoint x="1401" y="405" />
            </Array>
          </mxGeometry>
        </mxCell>
        <mxCell id="5I71og-eEB45eZ9uHMb0-142" style="edgeStyle=orthogonalEdgeStyle;rounded=0;orthogonalLoop=1;jettySize=auto;html=1;" edge="1" parent="1" source="5I71og-eEB45eZ9uHMb0-2" target="5I71og-eEB45eZ9uHMb0-106">
          <mxGeometry relative="1" as="geometry" />
        </mxCell>
        <mxCell id="5I71og-eEB45eZ9uHMb0-143" style="edgeStyle=orthogonalEdgeStyle;rounded=0;orthogonalLoop=1;jettySize=auto;html=1;entryX=1;entryY=0.5;entryDx=0;entryDy=0;" edge="1" parent="1" target="5I71og-eEB45eZ9uHMb0-108">
          <mxGeometry relative="1" as="geometry">
            <mxPoint x="1470" y="445" as="sourcePoint" />
          </mxGeometry>
        </mxCell>
        <mxCell id="5I71og-eEB45eZ9uHMb0-157" style="edgeStyle=orthogonalEdgeStyle;rounded=0;orthogonalLoop=1;jettySize=auto;html=1;entryX=1;entryY=0.5;entryDx=0;entryDy=0;" edge="1" parent="1" source="5I71og-eEB45eZ9uHMb0-2" target="5I71og-eEB45eZ9uHMb0-153">
          <mxGeometry relative="1" as="geometry" />
        </mxCell>
        <mxCell id="5I71og-eEB45eZ9uHMb0-159" style="edgeStyle=orthogonalEdgeStyle;rounded=0;orthogonalLoop=1;jettySize=auto;html=1;entryX=1;entryY=0.5;entryDx=0;entryDy=0;" edge="1" parent="1" source="5I71og-eEB45eZ9uHMb0-2" target="5I71og-eEB45eZ9uHMb0-155">
          <mxGeometry relative="1" as="geometry" />
        </mxCell>
        <mxCell id="5I71og-eEB45eZ9uHMb0-2" value="Admin" style="shape=umlActor;verticalLabelPosition=bottom;verticalAlign=top;html=1;outlineConnect=0;" vertex="1" parent="1">
          <mxGeometry x="1470" y="415" width="30" height="60" as="geometry" />
        </mxCell>
        <mxCell id="5I71og-eEB45eZ9uHMb0-19" value="" style="ellipse;whiteSpace=wrap;html=1;" vertex="1" parent="1">
          <mxGeometry x="1070" y="645" width="120" height="80" as="geometry" />
        </mxCell>
        <mxCell id="5I71og-eEB45eZ9uHMb0-20" value="Contacter le support&amp;nbsp;" style="text;html=1;align=center;verticalAlign=middle;whiteSpace=wrap;rounded=0;" vertex="1" parent="1">
          <mxGeometry x="1070" y="670" width="120" height="35" as="geometry" />
        </mxCell>
        <mxCell id="5I71og-eEB45eZ9uHMb0-22" value="BeyBey site de vente en ligne" style="text;html=1;align=center;verticalAlign=middle;whiteSpace=wrap;rounded=0;" vertex="1" parent="1">
          <mxGeometry x="300" y="220" width="183" height="30" as="geometry" />
        </mxCell>
        <mxCell id="5I71og-eEB45eZ9uHMb0-25" value="&lt;div&gt;&lt;br&gt;&lt;/div&gt;" style="ellipse;whiteSpace=wrap;html=1;verticalAlign=top;" vertex="1" parent="1">
          <mxGeometry x="340" y="265" width="130" height="80" as="geometry" />
        </mxCell>
        <mxCell id="5I71og-eEB45eZ9uHMb0-49" value="" style="edgeStyle=orthogonalEdgeStyle;rounded=0;orthogonalLoop=1;jettySize=auto;html=1;" edge="1" parent="1" source="5I71og-eEB45eZ9uHMb0-31">
          <mxGeometry relative="1" as="geometry">
            <mxPoint x="165" y="475" as="targetPoint" />
          </mxGeometry>
        </mxCell>
        <mxCell id="5I71og-eEB45eZ9uHMb0-31" value="Client" style="shape=umlActor;verticalLabelPosition=bottom;verticalAlign=top;html=1;outlineConnect=0;" vertex="1" parent="1">
          <mxGeometry x="230" y="600" width="30" height="60" as="geometry" />
        </mxCell>
        <mxCell id="5I71og-eEB45eZ9uHMb0-32" value="Visiteur" style="shape=umlActor;verticalLabelPosition=bottom;verticalAlign=top;html=1;outlineConnect=0;" vertex="1" parent="1">
          <mxGeometry x="150" y="392" width="30" height="60" as="geometry" />
        </mxCell>
        <mxCell id="5I71og-eEB45eZ9uHMb0-35" value="CrÃ©er un compte" style="text;html=1;align=center;verticalAlign=middle;whiteSpace=wrap;rounded=0;" vertex="1" parent="1">
          <mxGeometry x="352.5" y="290" width="105" height="30" as="geometry" />
        </mxCell>
        <mxCell id="5I71og-eEB45eZ9uHMb0-40" value="&lt;div&gt;&lt;br&gt;&lt;/div&gt;" style="ellipse;whiteSpace=wrap;html=1;verticalAlign=top;" vertex="1" parent="1">
          <mxGeometry x="340" y="365" width="130" height="80" as="geometry" />
        </mxCell>
        <mxCell id="5I71og-eEB45eZ9uHMb0-41" value="Parcourire le boutique" style="text;html=1;align=center;verticalAlign=middle;whiteSpace=wrap;rounded=0;" vertex="1" parent="1">
          <mxGeometry x="352.5" y="390" width="105" height="30" as="geometry" />
        </mxCell>
        <mxCell id="5I71og-eEB45eZ9uHMb0-42" value="&lt;div&gt;&lt;br&gt;&lt;/div&gt;" style="ellipse;whiteSpace=wrap;html=1;verticalAlign=top;" vertex="1" parent="1">
          <mxGeometry x="340" y="455" width="130" height="80" as="geometry" />
        </mxCell>
        <mxCell id="5I71og-eEB45eZ9uHMb0-43" value="Ajouter un article au panier" style="text;html=1;align=center;verticalAlign=middle;whiteSpace=wrap;rounded=0;" vertex="1" parent="1">
          <mxGeometry x="352.5" y="480" width="105" height="30" as="geometry" />
        </mxCell>
        <mxCell id="5I71og-eEB45eZ9uHMb0-44" value="&lt;div&gt;&lt;br&gt;&lt;/div&gt;" style="ellipse;whiteSpace=wrap;html=1;verticalAlign=top;" vertex="1" parent="1">
          <mxGeometry x="340" y="545" width="130" height="80" as="geometry" />
        </mxCell>
        <mxCell id="5I71og-eEB45eZ9uHMb0-45" value="Commander" style="text;html=1;align=center;verticalAlign=middle;whiteSpace=wrap;rounded=0;" vertex="1" parent="1">
          <mxGeometry x="352.5" y="570" width="105" height="30" as="geometry" />
        </mxCell>
        <mxCell id="5I71og-eEB45eZ9uHMb0-46" value="&lt;div&gt;&lt;br&gt;&lt;/div&gt;" style="ellipse;whiteSpace=wrap;html=1;verticalAlign=top;" vertex="1" parent="1">
          <mxGeometry x="340" y="635" width="130" height="80" as="geometry" />
        </mxCell>
        <mxCell id="5I71og-eEB45eZ9uHMb0-47" value="Modifier son compte" style="text;html=1;align=center;verticalAlign=middle;whiteSpace=wrap;rounded=0;" vertex="1" parent="1">
          <mxGeometry x="352.5" y="660" width="105" height="30" as="geometry" />
        </mxCell>
        <mxCell id="5I71og-eEB45eZ9uHMb0-50" value="" style="line;strokeWidth=1;fillColor=none;align=left;verticalAlign=middle;spacingTop=-1;spacingLeft=3;spacingRight=3;rotatable=0;labelPosition=right;points=[];portConstraint=eastwest;strokeColor=inherit;" vertex="1" parent="1">
          <mxGeometry x="260" y="301" width="80" height="8" as="geometry" />
        </mxCell>
        <mxCell id="5I71og-eEB45eZ9uHMb0-52" value="" style="endArrow=none;html=1;rounded=0;entryX=0;entryY=0.5;entryDx=0;entryDy=0;" edge="1" parent="1" source="5I71og-eEB45eZ9uHMb0-32" target="5I71og-eEB45eZ9uHMb0-40">
          <mxGeometry width="50" height="50" relative="1" as="geometry">
            <mxPoint x="230" y="470" as="sourcePoint" />
            <mxPoint x="280" y="420" as="targetPoint" />
          </mxGeometry>
        </mxCell>
        <mxCell id="5I71og-eEB45eZ9uHMb0-53" value="" style="endArrow=none;html=1;rounded=0;entryX=0;entryY=0.5;entryDx=0;entryDy=0;" edge="1" parent="1" source="5I71og-eEB45eZ9uHMb0-32" target="5I71og-eEB45eZ9uHMb0-42">
          <mxGeometry width="50" height="50" relative="1" as="geometry">
            <mxPoint x="180" y="425" as="sourcePoint" />
            <mxPoint x="350" y="415" as="targetPoint" />
          </mxGeometry>
        </mxCell>
        <mxCell id="5I71og-eEB45eZ9uHMb0-54" value="" style="endArrow=none;html=1;rounded=0;entryX=0;entryY=0.5;entryDx=0;entryDy=0;" edge="1" parent="1" target="5I71og-eEB45eZ9uHMb0-44">
          <mxGeometry width="50" height="50" relative="1" as="geometry">
            <mxPoint x="260" y="635" as="sourcePoint" />
            <mxPoint x="410" y="699" as="targetPoint" />
          </mxGeometry>
        </mxCell>
        <mxCell id="5I71og-eEB45eZ9uHMb0-55" value="" style="endArrow=none;html=1;rounded=0;entryX=0;entryY=0.375;entryDx=0;entryDy=0;entryPerimeter=0;" edge="1" parent="1" target="5I71og-eEB45eZ9uHMb0-46">
          <mxGeometry width="50" height="50" relative="1" as="geometry">
            <mxPoint x="260" y="635" as="sourcePoint" />
            <mxPoint x="340" y="679" as="targetPoint" />
          </mxGeometry>
        </mxCell>
        <mxCell id="5I71og-eEB45eZ9uHMb0-57" value="" style="rounded=0;whiteSpace=wrap;html=1;fillColor=none;" vertex="1" parent="1">
          <mxGeometry x="304" y="215" width="210" height="520" as="geometry" />
        </mxCell>
        <mxCell id="5I71og-eEB45eZ9uHMb0-144" style="edgeStyle=orthogonalEdgeStyle;rounded=0;orthogonalLoop=1;jettySize=auto;html=1;entryX=0;entryY=0.5;entryDx=0;entryDy=0;" edge="1" parent="1" source="5I71og-eEB45eZ9uHMb0-82" target="5I71og-eEB45eZ9uHMb0-92">
          <mxGeometry relative="1" as="geometry" />
        </mxCell>
        <mxCell id="5I71og-eEB45eZ9uHMb0-145" style="edgeStyle=orthogonalEdgeStyle;rounded=0;orthogonalLoop=1;jettySize=auto;html=1;entryX=0;entryY=0.5;entryDx=0;entryDy=0;" edge="1" parent="1">
          <mxGeometry relative="1" as="geometry">
            <mxPoint x="969.9999999999998" y="446.0344827586207" as="sourcePoint" />
            <mxPoint x="1067" y="406" as="targetPoint" />
            <Array as="points">
              <mxPoint x="1020" y="446" />
              <mxPoint x="1020" y="406" />
            </Array>
          </mxGeometry>
        </mxCell>
        <mxCell id="5I71og-eEB45eZ9uHMb0-146" style="edgeStyle=orthogonalEdgeStyle;rounded=0;orthogonalLoop=1;jettySize=auto;html=1;entryX=0;entryY=0.5;entryDx=0;entryDy=0;" edge="1" parent="1" source="5I71og-eEB45eZ9uHMb0-82" target="5I71og-eEB45eZ9uHMb0-86">
          <mxGeometry relative="1" as="geometry" />
        </mxCell>
        <mxCell id="5I71og-eEB45eZ9uHMb0-147" style="edgeStyle=orthogonalEdgeStyle;rounded=0;orthogonalLoop=1;jettySize=auto;html=1;entryX=0;entryY=0.5;entryDx=0;entryDy=0;" edge="1" parent="1" source="5I71og-eEB45eZ9uHMb0-82" target="5I71og-eEB45eZ9uHMb0-84">
          <mxGeometry relative="1" as="geometry" />
        </mxCell>
        <mxCell id="5I71og-eEB45eZ9uHMb0-148" style="edgeStyle=orthogonalEdgeStyle;rounded=0;orthogonalLoop=1;jettySize=auto;html=1;entryX=0;entryY=0.5;entryDx=0;entryDy=0;" edge="1" parent="1">
          <mxGeometry relative="1" as="geometry">
            <mxPoint x="968.9999999999998" y="445.0344827586207" as="sourcePoint" />
            <mxPoint x="1069" y="687.5" as="targetPoint" />
            <Array as="points">
              <mxPoint x="1019" y="445" />
              <mxPoint x="1019" y="688" />
            </Array>
          </mxGeometry>
        </mxCell>
        <mxCell id="5I71og-eEB45eZ9uHMb0-82" value="Client" style="shape=umlActor;verticalLabelPosition=bottom;verticalAlign=top;html=1;outlineConnect=0;" vertex="1" parent="1">
          <mxGeometry x="940" y="415" width="30" height="60" as="geometry" />
        </mxCell>
        <mxCell id="5I71og-eEB45eZ9uHMb0-84" value="GÃ©rer son compte utilisateur&amp;nbsp;" style="ellipse;whiteSpace=wrap;html=1;" vertex="1" parent="1">
          <mxGeometry x="1068" y="555" width="120" height="80" as="geometry" />
        </mxCell>
        <mxCell id="5I71og-eEB45eZ9uHMb0-86" value="" style="ellipse;whiteSpace=wrap;html=1;" vertex="1" parent="1">
          <mxGeometry x="1068" y="460" width="120" height="80" as="geometry" />
        </mxCell>
        <mxCell id="5I71og-eEB45eZ9uHMb0-87" value="Passer une commande" style="text;html=1;align=center;verticalAlign=middle;whiteSpace=wrap;rounded=0;" vertex="1" parent="1">
          <mxGeometry x="1090" y="485" width="76" height="30" as="geometry" />
        </mxCell>
        <mxCell id="5I71og-eEB45eZ9uHMb0-151" style="edgeStyle=orthogonalEdgeStyle;rounded=0;orthogonalLoop=1;jettySize=auto;html=1;exitX=0.5;exitY=1;exitDx=0;exitDy=0;entryX=0.5;entryY=0;entryDx=0;entryDy=0;" edge="1" parent="1" source="5I71og-eEB45eZ9uHMb0-90" target="5I71og-eEB45eZ9uHMb0-86">
          <mxGeometry relative="1" as="geometry" />
        </mxCell>
        <mxCell id="5I71og-eEB45eZ9uHMb0-90" value="" style="ellipse;whiteSpace=wrap;html=1;" vertex="1" parent="1">
          <mxGeometry x="1066" y="365" width="120" height="80" as="geometry" />
        </mxCell>
        <mxCell id="5I71og-eEB45eZ9uHMb0-91" value="Ajouter un produit au panier&amp;nbsp;" style="text;html=1;align=center;verticalAlign=middle;whiteSpace=wrap;rounded=0;" vertex="1" parent="1">
          <mxGeometry x="1073.5" y="390" width="103" height="30" as="geometry" />
        </mxCell>
        <mxCell id="5I71og-eEB45eZ9uHMb0-152" style="edgeStyle=orthogonalEdgeStyle;rounded=0;orthogonalLoop=1;jettySize=auto;html=1;exitX=0.5;exitY=1;exitDx=0;exitDy=0;entryX=0.5;entryY=0;entryDx=0;entryDy=0;" edge="1" parent="1" source="5I71og-eEB45eZ9uHMb0-92" target="5I71og-eEB45eZ9uHMb0-90">
          <mxGeometry relative="1" as="geometry" />
        </mxCell>
        <mxCell id="5I71og-eEB45eZ9uHMb0-92" value="" style="ellipse;whiteSpace=wrap;html=1;" vertex="1" parent="1">
          <mxGeometry x="1069" y="260" width="120" height="80" as="geometry" />
        </mxCell>
        <mxCell id="5I71og-eEB45eZ9uHMb0-93" value="Parcourir les&lt;div&gt;produits&lt;/div&gt;" style="text;html=1;align=center;verticalAlign=middle;whiteSpace=wrap;rounded=0;" vertex="1" parent="1">
          <mxGeometry x="1092" y="285" width="70" height="30" as="geometry" />
        </mxCell>
        <mxCell id="5I71og-eEB45eZ9uHMb0-102" value="" style="ellipse;whiteSpace=wrap;html=1;" vertex="1" parent="1">
          <mxGeometry x="1212" y="260" width="120" height="80" as="geometry" />
        </mxCell>
        <mxCell id="5I71og-eEB45eZ9uHMb0-103" value="GÃ©rer les produits" style="text;html=1;align=center;verticalAlign=middle;whiteSpace=wrap;rounded=0;" vertex="1" parent="1">
          <mxGeometry x="1217" y="285" width="110" height="30" as="geometry" />
        </mxCell>
        <mxCell id="5I71og-eEB45eZ9uHMb0-104" value="" style="ellipse;whiteSpace=wrap;html=1;" vertex="1" parent="1">
          <mxGeometry x="1207" y="365" width="120" height="80" as="geometry" />
        </mxCell>
        <mxCell id="5I71og-eEB45eZ9uHMb0-105" value="GÃ©rer les catÃ©gories" style="text;html=1;align=center;verticalAlign=middle;whiteSpace=wrap;rounded=0;" vertex="1" parent="1">
          <mxGeometry x="1237" y="390" width="60" height="30" as="geometry" />
        </mxCell>
        <mxCell id="5I71og-eEB45eZ9uHMb0-106" value="" style="ellipse;whiteSpace=wrap;html=1;" vertex="1" parent="1">
          <mxGeometry x="1212" y="460" width="120" height="80" as="geometry" />
        </mxCell>
        <mxCell id="5I71og-eEB45eZ9uHMb0-107" value="GÃ©rer les utilisateurs" style="text;html=1;align=center;verticalAlign=middle;whiteSpace=wrap;rounded=0;" vertex="1" parent="1">
          <mxGeometry x="1198" y="485" width="148" height="30" as="geometry" />
        </mxCell>
        <mxCell id="5I71og-eEB45eZ9uHMb0-108" value="" style="ellipse;whiteSpace=wrap;html=1;" vertex="1" parent="1">
          <mxGeometry x="1212" y="555" width="120" height="80" as="geometry" />
        </mxCell>
        <mxCell id="5I71og-eEB45eZ9uHMb0-109" value="GÃ©nÃ©rer des rapports de ventes" style="text;html=1;align=center;verticalAlign=middle;whiteSpace=wrap;rounded=0;" vertex="1" parent="1">
          <mxGeometry x="1217.5" y="580" width="109" height="30" as="geometry" />
        </mxCell>
        <mxCell id="5I71og-eEB45eZ9uHMb0-153" value="" style="ellipse;whiteSpace=wrap;html=1;" vertex="1" parent="1">
          <mxGeometry x="1212" y="645" width="120" height="80" as="geometry" />
        </mxCell>
        <mxCell id="5I71og-eEB45eZ9uHMb0-154" value="GÃ©rer les offres spÃ©ciales" style="text;html=1;align=center;verticalAlign=middle;whiteSpace=wrap;rounded=0;" vertex="1" parent="1">
          <mxGeometry x="1228" y="670" width="88" height="30" as="geometry" />
        </mxCell>
        <mxCell id="5I71og-eEB45eZ9uHMb0-155" value="" style="ellipse;whiteSpace=wrap;html=1;" vertex="1" parent="1">
          <mxGeometry x="1212" y="735" width="120" height="80" as="geometry" />
        </mxCell>
        <mxCell id="5I71og-eEB45eZ9uHMb0-156" value="GÃ©rer les commandes" style="text;html=1;align=center;verticalAlign=middle;whiteSpace=wrap;rounded=0;" vertex="1" parent="1">
          <mxGeometry x="1242" y="760" width="60" height="30" as="geometry" />
        </mxCell>
        <mxCell id="5I71og-eEB45eZ9uHMb0-160" value="BeyBey site de vente en ligne" style="text;html=1;align=center;verticalAlign=middle;whiteSpace=wrap;rounded=0;" vertex="1" parent="1">
          <mxGeometry x="998.5" y="220" width="183" height="30" as="geometry" />
        </mxCell>
        <mxCell id="5I71og-eEB45eZ9uHMb0-161" value="" style="rounded=0;whiteSpace=wrap;html=1;fillColor=none;" vertex="1" parent="1">
          <mxGeometry x="1002.5" y="215" width="422.5" height="630" as="geometry" />
        </mxCell>
        <mxCell id="5I71og-eEB45eZ9uHMb0-162" value="&lt;font style=&quot;font-size: 16px;&quot;&gt;&lt;b&gt;GÃ©nÃ©ralisation de rÃ´le&lt;/b&gt;&lt;/font&gt;" style="text;html=1;align=center;verticalAlign=middle;resizable=0;points=[];autosize=1;strokeColor=none;fillColor=none;" vertex="1" parent="1">
          <mxGeometry x="255" y="150" width="190" height="30" as="geometry" />
        </mxCell>
        <mxCell id="5I71og-eEB45eZ9uHMb0-163" value="&lt;span style=&quot;font-size: 16px;&quot;&gt;&lt;b&gt;Diagrammes de cas d&#39;utilisation&lt;/b&gt;&lt;/span&gt;" style="text;html=1;align=center;verticalAlign=middle;resizable=0;points=[];autosize=1;strokeColor=none;fillColor=none;" vertex="1" parent="1">
          <mxGeometry x="1078.75" y="150" width="270" height="30" as="geometry" />
        </mxCell>
      </root>
    </mxGraphModel>
  </diagram>
</mxfile>
